<mxfile host="app.diagrams.net" modified="2021-08-28T08:05:13.237Z" agent="5.0 (Macintosh; Intel Mac OS X 10_15_7) AppleWebKit/537.36 (KHTML, like Gecko) Chrome/92.0.4515.159 Safari/537.36" etag="X8k0fG2E4vTTsqTRq3IQ" version="15.0.3" type="github">
  <diagram id="C5RBs43oDa-KdzZeNtuy" name="Page-1">
    <mxGraphModel dx="1992" dy="1806" grid="1" gridSize="10" guides="1" tooltips="1" connect="1" arrows="1" fold="1" page="1" pageScale="1" pageWidth="827" pageHeight="1169" math="0" shadow="0">
      <root>
        <mxCell id="WIyWlLk6GJQsqaUBKTNV-0" />
        <mxCell id="WIyWlLk6GJQsqaUBKTNV-1" parent="WIyWlLk6GJQsqaUBKTNV-0" />
        <mxCell id="WIyWlLk6GJQsqaUBKTNV-2" value="" style="rounded=0;html=1;jettySize=auto;orthogonalLoop=1;fontSize=11;endArrow=block;endFill=0;endSize=8;strokeWidth=1;shadow=0;labelBackgroundColor=none;edgeStyle=orthogonalEdgeStyle;" parent="WIyWlLk6GJQsqaUBKTNV-1" source="WIyWlLk6GJQsqaUBKTNV-3" target="WIyWlLk6GJQsqaUBKTNV-6" edge="1">
          <mxGeometry relative="1" as="geometry" />
        </mxCell>
        <mxCell id="WIyWlLk6GJQsqaUBKTNV-3" value="adahandle.com/conrad" style="rounded=1;whiteSpace=wrap;html=1;fontSize=12;glass=0;strokeWidth=1;shadow=0;" parent="WIyWlLk6GJQsqaUBKTNV-1" vertex="1">
          <mxGeometry x="122.5" y="80" width="180" height="40" as="geometry" />
        </mxCell>
        <mxCell id="Qy-MQjVR4fLnXaBjkgtk-20" style="edgeStyle=orthogonalEdgeStyle;rounded=0;orthogonalLoop=1;jettySize=auto;html=1;" edge="1" parent="WIyWlLk6GJQsqaUBKTNV-1" source="WIyWlLk6GJQsqaUBKTNV-6" target="Qy-MQjVR4fLnXaBjkgtk-13">
          <mxGeometry relative="1" as="geometry" />
        </mxCell>
        <mxCell id="Qy-MQjVR4fLnXaBjkgtk-27" style="edgeStyle=orthogonalEdgeStyle;rounded=0;orthogonalLoop=1;jettySize=auto;html=1;dashed=1;dashPattern=1 1;strokeColor=#000000;" edge="1" parent="WIyWlLk6GJQsqaUBKTNV-1" source="WIyWlLk6GJQsqaUBKTNV-6">
          <mxGeometry relative="1" as="geometry">
            <mxPoint x="213" y="440" as="targetPoint" />
            <Array as="points">
              <mxPoint x="213" y="410" />
              <mxPoint x="213" y="410" />
            </Array>
          </mxGeometry>
        </mxCell>
        <mxCell id="Qy-MQjVR4fLnXaBjkgtk-55" style="edgeStyle=orthogonalEdgeStyle;rounded=0;orthogonalLoop=1;jettySize=auto;html=1;strokeColor=#000000;entryX=0.25;entryY=0;entryDx=0;entryDy=0;dashed=1;" edge="1" parent="WIyWlLk6GJQsqaUBKTNV-1" target="Qy-MQjVR4fLnXaBjkgtk-56">
          <mxGeometry relative="1" as="geometry">
            <mxPoint x="560" y="170" as="targetPoint" />
            <mxPoint x="213" y="139" as="sourcePoint" />
            <Array as="points">
              <mxPoint x="490" y="139" />
            </Array>
          </mxGeometry>
        </mxCell>
        <mxCell id="Qy-MQjVR4fLnXaBjkgtk-57" value="Fetch Data from API" style="edgeLabel;html=1;align=center;verticalAlign=middle;resizable=0;points=[];" vertex="1" connectable="0" parent="Qy-MQjVR4fLnXaBjkgtk-55">
          <mxGeometry x="-0.0399" y="-2" relative="1" as="geometry">
            <mxPoint y="-11" as="offset" />
          </mxGeometry>
        </mxCell>
        <mxCell id="WIyWlLk6GJQsqaUBKTNV-6" value="Does @conrad&lt;br&gt;exist?" style="rhombus;whiteSpace=wrap;html=1;shadow=0;fontFamily=Helvetica;fontSize=12;align=center;strokeWidth=1;spacing=6;spacingTop=-4;" parent="WIyWlLk6GJQsqaUBKTNV-1" vertex="1">
          <mxGeometry x="140" y="210" width="145" height="130" as="geometry" />
        </mxCell>
        <mxCell id="Qy-MQjVR4fLnXaBjkgtk-13" value="Show error message,&lt;br&gt;offer handle purchase" style="rounded=1;whiteSpace=wrap;html=1;" vertex="1" parent="WIyWlLk6GJQsqaUBKTNV-1">
          <mxGeometry x="-110" y="245" width="140" height="60" as="geometry" />
        </mxCell>
        <mxCell id="Qy-MQjVR4fLnXaBjkgtk-21" value="No" style="text;html=1;align=center;verticalAlign=middle;resizable=0;points=[];autosize=1;strokeColor=none;" vertex="1" parent="WIyWlLk6GJQsqaUBKTNV-1">
          <mxGeometry x="80" y="245" width="30" height="20" as="geometry" />
        </mxCell>
        <mxCell id="Qy-MQjVR4fLnXaBjkgtk-26" value="Yes" style="text;html=1;align=center;verticalAlign=middle;resizable=0;points=[];autosize=1;strokeColor=none;" vertex="1" parent="WIyWlLk6GJQsqaUBKTNV-1">
          <mxGeometry x="220" y="380" width="40" height="20" as="geometry" />
        </mxCell>
        <mxCell id="Qy-MQjVR4fLnXaBjkgtk-29" style="edgeStyle=orthogonalEdgeStyle;rounded=0;orthogonalLoop=1;jettySize=auto;html=1;strokeColor=#000000;entryX=0;entryY=0.5;entryDx=0;entryDy=0;" edge="1" parent="WIyWlLk6GJQsqaUBKTNV-1" target="Qy-MQjVR4fLnXaBjkgtk-32">
          <mxGeometry relative="1" as="geometry">
            <mxPoint x="423.75" y="494.5" as="targetPoint" />
            <mxPoint x="266.25" y="494.5" as="sourcePoint" />
          </mxGeometry>
        </mxCell>
        <mxCell id="Qy-MQjVR4fLnXaBjkgtk-30" value="No" style="text;html=1;align=center;verticalAlign=middle;resizable=0;points=[];autosize=1;strokeColor=none;" vertex="1" parent="WIyWlLk6GJQsqaUBKTNV-1">
          <mxGeometry x="315" y="465" width="30" height="20" as="geometry" />
        </mxCell>
        <mxCell id="Qy-MQjVR4fLnXaBjkgtk-34" style="edgeStyle=orthogonalEdgeStyle;rounded=0;orthogonalLoop=1;jettySize=auto;html=1;strokeColor=#000000;entryX=0.5;entryY=0;entryDx=0;entryDy=0;" edge="1" parent="WIyWlLk6GJQsqaUBKTNV-1" source="Qy-MQjVR4fLnXaBjkgtk-31" target="Qy-MQjVR4fLnXaBjkgtk-36">
          <mxGeometry relative="1" as="geometry">
            <mxPoint x="212.5" y="640" as="targetPoint" />
          </mxGeometry>
        </mxCell>
        <mxCell id="Qy-MQjVR4fLnXaBjkgtk-31" value="Is wallet connected?" style="rhombus;whiteSpace=wrap;html=1;" vertex="1" parent="WIyWlLk6GJQsqaUBKTNV-1">
          <mxGeometry x="158.75" y="440" width="107.5" height="110" as="geometry" />
        </mxCell>
        <mxCell id="Qy-MQjVR4fLnXaBjkgtk-37" style="edgeStyle=orthogonalEdgeStyle;rounded=0;orthogonalLoop=1;jettySize=auto;html=1;strokeColor=#000000;entryX=1;entryY=0.5;entryDx=0;entryDy=0;exitX=0.5;exitY=1;exitDx=0;exitDy=0;" edge="1" parent="WIyWlLk6GJQsqaUBKTNV-1" source="Qy-MQjVR4fLnXaBjkgtk-32" target="Qy-MQjVR4fLnXaBjkgtk-36">
          <mxGeometry relative="1" as="geometry">
            <mxPoint x="380" y="700" as="targetPoint" />
            <Array as="points">
              <mxPoint x="470" y="680" />
            </Array>
          </mxGeometry>
        </mxCell>
        <mxCell id="Qy-MQjVR4fLnXaBjkgtk-32" value="Connect Wallet" style="rounded=1;whiteSpace=wrap;html=1;" vertex="1" parent="WIyWlLk6GJQsqaUBKTNV-1">
          <mxGeometry x="410" y="465" width="120" height="60" as="geometry" />
        </mxCell>
        <mxCell id="Qy-MQjVR4fLnXaBjkgtk-35" value="Yes" style="text;html=1;align=center;verticalAlign=middle;resizable=0;points=[];autosize=1;strokeColor=none;" vertex="1" parent="WIyWlLk6GJQsqaUBKTNV-1">
          <mxGeometry x="220" y="580" width="40" height="20" as="geometry" />
        </mxCell>
        <mxCell id="Qy-MQjVR4fLnXaBjkgtk-38" style="edgeStyle=orthogonalEdgeStyle;rounded=0;orthogonalLoop=1;jettySize=auto;html=1;strokeColor=#000000;" edge="1" parent="WIyWlLk6GJQsqaUBKTNV-1" source="Qy-MQjVR4fLnXaBjkgtk-36">
          <mxGeometry relative="1" as="geometry">
            <mxPoint x="213" y="790" as="targetPoint" />
          </mxGeometry>
        </mxCell>
        <mxCell id="Qy-MQjVR4fLnXaBjkgtk-36" value="Set user input,&lt;br&gt;initiate wallet transaction" style="rounded=1;whiteSpace=wrap;html=1;" vertex="1" parent="WIyWlLk6GJQsqaUBKTNV-1">
          <mxGeometry x="152.5" y="650" width="120" height="60" as="geometry" />
        </mxCell>
        <mxCell id="Qy-MQjVR4fLnXaBjkgtk-40" style="edgeStyle=orthogonalEdgeStyle;rounded=0;orthogonalLoop=1;jettySize=auto;html=1;strokeColor=#000000;" edge="1" parent="WIyWlLk6GJQsqaUBKTNV-1" source="Qy-MQjVR4fLnXaBjkgtk-39">
          <mxGeometry relative="1" as="geometry">
            <mxPoint x="360" y="830" as="targetPoint" />
          </mxGeometry>
        </mxCell>
        <mxCell id="Qy-MQjVR4fLnXaBjkgtk-43" style="edgeStyle=orthogonalEdgeStyle;rounded=0;orthogonalLoop=1;jettySize=auto;html=1;strokeColor=#000000;" edge="1" parent="WIyWlLk6GJQsqaUBKTNV-1" source="Qy-MQjVR4fLnXaBjkgtk-39">
          <mxGeometry relative="1" as="geometry">
            <mxPoint x="212.5" y="970" as="targetPoint" />
          </mxGeometry>
        </mxCell>
        <mxCell id="Qy-MQjVR4fLnXaBjkgtk-39" value="Success?" style="rhombus;whiteSpace=wrap;html=1;" vertex="1" parent="WIyWlLk6GJQsqaUBKTNV-1">
          <mxGeometry x="172.5" y="790" width="80" height="80" as="geometry" />
        </mxCell>
        <mxCell id="Qy-MQjVR4fLnXaBjkgtk-41" value="No" style="text;html=1;align=center;verticalAlign=middle;resizable=0;points=[];autosize=1;strokeColor=none;" vertex="1" parent="WIyWlLk6GJQsqaUBKTNV-1">
          <mxGeometry x="285" y="800" width="30" height="20" as="geometry" />
        </mxCell>
        <mxCell id="Qy-MQjVR4fLnXaBjkgtk-42" value="Error Message" style="rounded=1;whiteSpace=wrap;html=1;" vertex="1" parent="WIyWlLk6GJQsqaUBKTNV-1">
          <mxGeometry x="365" y="800" width="120" height="60" as="geometry" />
        </mxCell>
        <mxCell id="Qy-MQjVR4fLnXaBjkgtk-44" value="Yes" style="text;html=1;align=center;verticalAlign=middle;resizable=0;points=[];autosize=1;strokeColor=none;" vertex="1" parent="WIyWlLk6GJQsqaUBKTNV-1">
          <mxGeometry x="212.5" y="910" width="40" height="20" as="geometry" />
        </mxCell>
        <mxCell id="Qy-MQjVR4fLnXaBjkgtk-45" value="Success Message" style="rounded=1;whiteSpace=wrap;html=1;" vertex="1" parent="WIyWlLk6GJQsqaUBKTNV-1">
          <mxGeometry x="152.5" y="970" width="120" height="60" as="geometry" />
        </mxCell>
        <mxCell id="Qy-MQjVR4fLnXaBjkgtk-53" style="edgeStyle=orthogonalEdgeStyle;rounded=0;orthogonalLoop=1;jettySize=auto;html=1;strokeColor=#000000;" edge="1" parent="WIyWlLk6GJQsqaUBKTNV-1" source="Qy-MQjVR4fLnXaBjkgtk-51">
          <mxGeometry relative="1" as="geometry">
            <mxPoint x="510" y="-150" as="targetPoint" />
            <Array as="points">
              <mxPoint x="510" y="-150" />
            </Array>
          </mxGeometry>
        </mxCell>
        <mxCell id="Qy-MQjVR4fLnXaBjkgtk-51" value="Cache Data" style="shape=cylinder3;whiteSpace=wrap;html=1;boundedLbl=1;backgroundOutline=1;size=15;" vertex="1" parent="WIyWlLk6GJQsqaUBKTNV-1">
          <mxGeometry x="490" y="-85" width="60" height="80" as="geometry" />
        </mxCell>
        <mxCell id="Qy-MQjVR4fLnXaBjkgtk-54" style="edgeStyle=orthogonalEdgeStyle;rounded=0;orthogonalLoop=1;jettySize=auto;html=1;entryX=0.733;entryY=0.013;entryDx=0;entryDy=0;entryPerimeter=0;strokeColor=#000000;exitX=0.733;exitY=1;exitDx=0;exitDy=0;exitPerimeter=0;" edge="1" parent="WIyWlLk6GJQsqaUBKTNV-1" source="Qy-MQjVR4fLnXaBjkgtk-52" target="Qy-MQjVR4fLnXaBjkgtk-51">
          <mxGeometry relative="1" as="geometry" />
        </mxCell>
        <mxCell id="Qy-MQjVR4fLnXaBjkgtk-52" value="Cardano&lt;br&gt;Node" style="shape=cylinder3;whiteSpace=wrap;html=1;boundedLbl=1;backgroundOutline=1;size=15;" vertex="1" parent="WIyWlLk6GJQsqaUBKTNV-1">
          <mxGeometry x="490" y="-230" width="60" height="80" as="geometry" />
        </mxCell>
        <mxCell id="Qy-MQjVR4fLnXaBjkgtk-59" style="edgeStyle=orthogonalEdgeStyle;rounded=0;orthogonalLoop=1;jettySize=auto;html=1;dashed=1;strokeColor=#000000;" edge="1" parent="WIyWlLk6GJQsqaUBKTNV-1" source="Qy-MQjVR4fLnXaBjkgtk-56">
          <mxGeometry relative="1" as="geometry">
            <mxPoint x="210" y="190" as="targetPoint" />
          </mxGeometry>
        </mxCell>
        <mxCell id="Qy-MQjVR4fLnXaBjkgtk-60" value="Response" style="edgeLabel;html=1;align=center;verticalAlign=middle;resizable=0;points=[];" vertex="1" connectable="0" parent="Qy-MQjVR4fLnXaBjkgtk-59">
          <mxGeometry x="-0.08" y="-3" relative="1" as="geometry">
            <mxPoint as="offset" />
          </mxGeometry>
        </mxCell>
        <mxCell id="Qy-MQjVR4fLnXaBjkgtk-61" style="edgeStyle=orthogonalEdgeStyle;rounded=0;orthogonalLoop=1;jettySize=auto;html=1;entryX=0.5;entryY=1;entryDx=0;entryDy=0;entryPerimeter=0;dashed=1;strokeColor=#000000;" edge="1" parent="WIyWlLk6GJQsqaUBKTNV-1" source="Qy-MQjVR4fLnXaBjkgtk-56" target="Qy-MQjVR4fLnXaBjkgtk-51">
          <mxGeometry relative="1" as="geometry" />
        </mxCell>
        <mxCell id="Qy-MQjVR4fLnXaBjkgtk-62" value="API gets data&lt;br&gt;from cache/node" style="edgeLabel;html=1;align=center;verticalAlign=middle;resizable=0;points=[];" vertex="1" connectable="0" parent="Qy-MQjVR4fLnXaBjkgtk-61">
          <mxGeometry x="-0.5437" y="-1" relative="1" as="geometry">
            <mxPoint x="-1" y="-52" as="offset" />
          </mxGeometry>
        </mxCell>
        <mxCell id="Qy-MQjVR4fLnXaBjkgtk-69" style="edgeStyle=orthogonalEdgeStyle;rounded=0;orthogonalLoop=1;jettySize=auto;html=1;entryX=0;entryY=0.75;entryDx=0;entryDy=0;dashed=1;strokeColor=#000000;exitX=1.042;exitY=0.633;exitDx=0;exitDy=0;exitPerimeter=0;" edge="1" parent="WIyWlLk6GJQsqaUBKTNV-1" source="Qy-MQjVR4fLnXaBjkgtk-56" target="Qy-MQjVR4fLnXaBjkgtk-65">
          <mxGeometry relative="1" as="geometry" />
        </mxCell>
        <mxCell id="Qy-MQjVR4fLnXaBjkgtk-71" value="Response" style="edgeLabel;html=1;align=center;verticalAlign=middle;resizable=0;points=[];" vertex="1" connectable="0" parent="Qy-MQjVR4fLnXaBjkgtk-69">
          <mxGeometry x="0.5289" y="4" relative="1" as="geometry">
            <mxPoint y="2" as="offset" />
          </mxGeometry>
        </mxCell>
        <mxCell id="Qy-MQjVR4fLnXaBjkgtk-100" style="edgeStyle=orthogonalEdgeStyle;rounded=0;orthogonalLoop=1;jettySize=auto;html=1;entryX=0;entryY=0.75;entryDx=0;entryDy=0;dashed=1;strokeColor=#000000;" edge="1" parent="WIyWlLk6GJQsqaUBKTNV-1" source="Qy-MQjVR4fLnXaBjkgtk-56" target="Qy-MQjVR4fLnXaBjkgtk-90">
          <mxGeometry relative="1" as="geometry">
            <Array as="points">
              <mxPoint x="560" y="785" />
            </Array>
          </mxGeometry>
        </mxCell>
        <mxCell id="Qy-MQjVR4fLnXaBjkgtk-101" value="Response" style="edgeLabel;html=1;align=center;verticalAlign=middle;resizable=0;points=[];" vertex="1" connectable="0" parent="Qy-MQjVR4fLnXaBjkgtk-100">
          <mxGeometry x="0.6306" y="3" relative="1" as="geometry">
            <mxPoint x="35" as="offset" />
          </mxGeometry>
        </mxCell>
        <mxCell id="Qy-MQjVR4fLnXaBjkgtk-56" value="API" style="rounded=0;whiteSpace=wrap;html=1;" vertex="1" parent="WIyWlLk6GJQsqaUBKTNV-1">
          <mxGeometry x="460" y="160" width="120" height="60" as="geometry" />
        </mxCell>
        <mxCell id="Qy-MQjVR4fLnXaBjkgtk-64" style="edgeStyle=orthogonalEdgeStyle;rounded=0;orthogonalLoop=1;jettySize=auto;html=1;strokeColor=#000000;entryX=0.5;entryY=0;entryDx=0;entryDy=0;" edge="1" parent="WIyWlLk6GJQsqaUBKTNV-1" source="Qy-MQjVR4fLnXaBjkgtk-63" target="Qy-MQjVR4fLnXaBjkgtk-65">
          <mxGeometry relative="1" as="geometry">
            <mxPoint x="860" y="200" as="targetPoint" />
          </mxGeometry>
        </mxCell>
        <mxCell id="Qy-MQjVR4fLnXaBjkgtk-63" value="adahandle.com/mint" style="rounded=1;whiteSpace=wrap;html=1;fontSize=12;glass=0;strokeWidth=1;shadow=0;" vertex="1" parent="WIyWlLk6GJQsqaUBKTNV-1">
          <mxGeometry x="750" y="80" width="180" height="40" as="geometry" />
        </mxCell>
        <mxCell id="Qy-MQjVR4fLnXaBjkgtk-67" style="edgeStyle=orthogonalEdgeStyle;rounded=0;orthogonalLoop=1;jettySize=auto;html=1;strokeColor=#000000;dashed=1;" edge="1" parent="WIyWlLk6GJQsqaUBKTNV-1" source="Qy-MQjVR4fLnXaBjkgtk-65">
          <mxGeometry relative="1" as="geometry">
            <mxPoint x="580" y="180" as="targetPoint" />
            <Array as="points">
              <mxPoint x="740" y="440" />
              <mxPoint x="740" y="180" />
            </Array>
          </mxGeometry>
        </mxCell>
        <mxCell id="Qy-MQjVR4fLnXaBjkgtk-68" value="Fetch Data from API" style="edgeLabel;html=1;align=center;verticalAlign=middle;resizable=0;points=[];rotation=90;" vertex="1" connectable="0" parent="Qy-MQjVR4fLnXaBjkgtk-67">
          <mxGeometry x="-0.3712" y="2" relative="1" as="geometry">
            <mxPoint x="2" y="-45" as="offset" />
          </mxGeometry>
        </mxCell>
        <mxCell id="Qy-MQjVR4fLnXaBjkgtk-72" style="edgeStyle=orthogonalEdgeStyle;rounded=0;orthogonalLoop=1;jettySize=auto;html=1;strokeColor=#000000;" edge="1" parent="WIyWlLk6GJQsqaUBKTNV-1" source="Qy-MQjVR4fLnXaBjkgtk-65">
          <mxGeometry relative="1" as="geometry">
            <mxPoint x="840" y="570" as="targetPoint" />
          </mxGeometry>
        </mxCell>
        <mxCell id="Qy-MQjVR4fLnXaBjkgtk-65" value="User Input: handle_name" style="rounded=1;whiteSpace=wrap;html=1;" vertex="1" parent="WIyWlLk6GJQsqaUBKTNV-1">
          <mxGeometry x="780" y="410" width="120" height="60" as="geometry" />
        </mxCell>
        <mxCell id="Qy-MQjVR4fLnXaBjkgtk-74" style="edgeStyle=orthogonalEdgeStyle;rounded=0;orthogonalLoop=1;jettySize=auto;html=1;strokeColor=#000000;" edge="1" parent="WIyWlLk6GJQsqaUBKTNV-1" source="Qy-MQjVR4fLnXaBjkgtk-73" target="Qy-MQjVR4fLnXaBjkgtk-75">
          <mxGeometry relative="1" as="geometry">
            <mxPoint x="1000" y="625" as="targetPoint" />
          </mxGeometry>
        </mxCell>
        <mxCell id="Qy-MQjVR4fLnXaBjkgtk-77" style="edgeStyle=orthogonalEdgeStyle;rounded=0;orthogonalLoop=1;jettySize=auto;html=1;strokeColor=#000000;" edge="1" parent="WIyWlLk6GJQsqaUBKTNV-1" source="Qy-MQjVR4fLnXaBjkgtk-73">
          <mxGeometry relative="1" as="geometry">
            <mxPoint x="840" y="740" as="targetPoint" />
          </mxGeometry>
        </mxCell>
        <mxCell id="Qy-MQjVR4fLnXaBjkgtk-73" value="Name exists?" style="rhombus;whiteSpace=wrap;html=1;" vertex="1" parent="WIyWlLk6GJQsqaUBKTNV-1">
          <mxGeometry x="780" y="570" width="120" height="110" as="geometry" />
        </mxCell>
        <mxCell id="Qy-MQjVR4fLnXaBjkgtk-75" value="Show error message" style="rounded=1;whiteSpace=wrap;html=1;" vertex="1" parent="WIyWlLk6GJQsqaUBKTNV-1">
          <mxGeometry x="970" y="595" width="150" height="60" as="geometry" />
        </mxCell>
        <mxCell id="Qy-MQjVR4fLnXaBjkgtk-76" value="Yes" style="text;html=1;align=center;verticalAlign=middle;resizable=0;points=[];autosize=1;strokeColor=none;" vertex="1" parent="WIyWlLk6GJQsqaUBKTNV-1">
          <mxGeometry x="910" y="600" width="40" height="20" as="geometry" />
        </mxCell>
        <mxCell id="Qy-MQjVR4fLnXaBjkgtk-79" value="No" style="text;html=1;align=center;verticalAlign=middle;resizable=0;points=[];autosize=1;strokeColor=none;" vertex="1" parent="WIyWlLk6GJQsqaUBKTNV-1">
          <mxGeometry x="845" y="700" width="30" height="20" as="geometry" />
        </mxCell>
        <mxCell id="Qy-MQjVR4fLnXaBjkgtk-81" style="edgeStyle=orthogonalEdgeStyle;rounded=0;orthogonalLoop=1;jettySize=auto;html=1;strokeColor=#000000;entryX=0;entryY=0.5;entryDx=0;entryDy=0;exitX=1;exitY=0.5;exitDx=0;exitDy=0;" edge="1" parent="WIyWlLk6GJQsqaUBKTNV-1" target="Qy-MQjVR4fLnXaBjkgtk-86" source="Qy-MQjVR4fLnXaBjkgtk-84">
          <mxGeometry relative="1" as="geometry">
            <mxPoint x="1051.25" y="184.5" as="targetPoint" />
            <mxPoint x="893.75" y="184.5" as="sourcePoint" />
            <Array as="points">
              <mxPoint x="1038" y="230" />
            </Array>
          </mxGeometry>
        </mxCell>
        <mxCell id="Qy-MQjVR4fLnXaBjkgtk-82" value="No" style="text;html=1;align=center;verticalAlign=middle;resizable=0;points=[];autosize=1;strokeColor=none;" vertex="1" parent="WIyWlLk6GJQsqaUBKTNV-1">
          <mxGeometry x="950" y="210" width="30" height="20" as="geometry" />
        </mxCell>
        <mxCell id="Qy-MQjVR4fLnXaBjkgtk-84" value="Is wallet connected?" style="rhombus;whiteSpace=wrap;html=1;" vertex="1" parent="WIyWlLk6GJQsqaUBKTNV-1">
          <mxGeometry x="786.25" y="175" width="107.5" height="110" as="geometry" />
        </mxCell>
        <mxCell id="Qy-MQjVR4fLnXaBjkgtk-85" style="edgeStyle=orthogonalEdgeStyle;rounded=0;orthogonalLoop=1;jettySize=auto;html=1;strokeColor=#000000;entryX=1;entryY=0.5;entryDx=0;entryDy=0;exitX=0.5;exitY=1;exitDx=0;exitDy=0;" edge="1" parent="WIyWlLk6GJQsqaUBKTNV-1" source="Qy-MQjVR4fLnXaBjkgtk-86" target="Qy-MQjVR4fLnXaBjkgtk-65">
          <mxGeometry relative="1" as="geometry">
            <mxPoint x="900" y="370" as="targetPoint" />
            <Array as="points">
              <mxPoint x="1098" y="440" />
            </Array>
          </mxGeometry>
        </mxCell>
        <mxCell id="Qy-MQjVR4fLnXaBjkgtk-86" value="Connect Wallet" style="rounded=1;whiteSpace=wrap;html=1;" vertex="1" parent="WIyWlLk6GJQsqaUBKTNV-1">
          <mxGeometry x="1040" y="200" width="120" height="60" as="geometry" />
        </mxCell>
        <mxCell id="Qy-MQjVR4fLnXaBjkgtk-87" value="Yes" style="text;html=1;align=center;verticalAlign=middle;resizable=0;points=[];autosize=1;strokeColor=none;" vertex="1" parent="WIyWlLk6GJQsqaUBKTNV-1">
          <mxGeometry x="853.75" y="320" width="40" height="20" as="geometry" />
        </mxCell>
        <mxCell id="Qy-MQjVR4fLnXaBjkgtk-92" style="edgeStyle=orthogonalEdgeStyle;rounded=0;orthogonalLoop=1;jettySize=auto;html=1;strokeColor=#000000;" edge="1" parent="WIyWlLk6GJQsqaUBKTNV-1" source="Qy-MQjVR4fLnXaBjkgtk-89">
          <mxGeometry relative="1" as="geometry">
            <mxPoint x="1020" y="935" as="targetPoint" />
          </mxGeometry>
        </mxCell>
        <mxCell id="Qy-MQjVR4fLnXaBjkgtk-95" style="edgeStyle=orthogonalEdgeStyle;rounded=0;orthogonalLoop=1;jettySize=auto;html=1;strokeColor=#000000;entryX=0.5;entryY=0;entryDx=0;entryDy=0;" edge="1" parent="WIyWlLk6GJQsqaUBKTNV-1" source="Qy-MQjVR4fLnXaBjkgtk-89" target="Qy-MQjVR4fLnXaBjkgtk-97">
          <mxGeometry relative="1" as="geometry">
            <mxPoint x="840" y="1070" as="targetPoint" />
          </mxGeometry>
        </mxCell>
        <mxCell id="Qy-MQjVR4fLnXaBjkgtk-89" value="Success?" style="rhombus;whiteSpace=wrap;html=1;" vertex="1" parent="WIyWlLk6GJQsqaUBKTNV-1">
          <mxGeometry x="775" y="870" width="130" height="130" as="geometry" />
        </mxCell>
        <mxCell id="Qy-MQjVR4fLnXaBjkgtk-91" style="edgeStyle=orthogonalEdgeStyle;rounded=0;orthogonalLoop=1;jettySize=auto;html=1;entryX=0.5;entryY=0;entryDx=0;entryDy=0;strokeColor=#000000;" edge="1" parent="WIyWlLk6GJQsqaUBKTNV-1" source="Qy-MQjVR4fLnXaBjkgtk-90" target="Qy-MQjVR4fLnXaBjkgtk-89">
          <mxGeometry relative="1" as="geometry" />
        </mxCell>
        <mxCell id="Qy-MQjVR4fLnXaBjkgtk-90" value="Prompt Fee&lt;br&gt;Transaction" style="rounded=1;whiteSpace=wrap;html=1;" vertex="1" parent="WIyWlLk6GJQsqaUBKTNV-1">
          <mxGeometry x="780" y="740" width="120" height="60" as="geometry" />
        </mxCell>
        <mxCell id="Qy-MQjVR4fLnXaBjkgtk-93" value="No" style="text;html=1;align=center;verticalAlign=middle;resizable=0;points=[];autosize=1;strokeColor=none;" vertex="1" parent="WIyWlLk6GJQsqaUBKTNV-1">
          <mxGeometry x="945" y="910" width="30" height="20" as="geometry" />
        </mxCell>
        <mxCell id="Qy-MQjVR4fLnXaBjkgtk-94" value="Error Message" style="rounded=1;whiteSpace=wrap;html=1;" vertex="1" parent="WIyWlLk6GJQsqaUBKTNV-1">
          <mxGeometry x="1020" y="905" width="120" height="60" as="geometry" />
        </mxCell>
        <mxCell id="Qy-MQjVR4fLnXaBjkgtk-96" value="Yes" style="text;html=1;align=center;verticalAlign=middle;resizable=0;points=[];autosize=1;strokeColor=none;" vertex="1" parent="WIyWlLk6GJQsqaUBKTNV-1">
          <mxGeometry x="845" y="1040" width="40" height="20" as="geometry" />
        </mxCell>
        <mxCell id="Qy-MQjVR4fLnXaBjkgtk-98" style="edgeStyle=orthogonalEdgeStyle;rounded=0;orthogonalLoop=1;jettySize=auto;html=1;entryX=1;entryY=1;entryDx=0;entryDy=0;strokeColor=#000000;dashed=1;exitX=-0.017;exitY=0.4;exitDx=0;exitDy=0;exitPerimeter=0;" edge="1" parent="WIyWlLk6GJQsqaUBKTNV-1" source="Qy-MQjVR4fLnXaBjkgtk-90" target="Qy-MQjVR4fLnXaBjkgtk-56">
          <mxGeometry relative="1" as="geometry" />
        </mxCell>
        <mxCell id="Qy-MQjVR4fLnXaBjkgtk-99" value="Mint NFT with Handle Name" style="edgeLabel;html=1;align=center;verticalAlign=middle;resizable=0;points=[];" vertex="1" connectable="0" parent="Qy-MQjVR4fLnXaBjkgtk-98">
          <mxGeometry x="-0.857" y="-2" relative="1" as="geometry">
            <mxPoint x="-45" as="offset" />
          </mxGeometry>
        </mxCell>
        <mxCell id="Qy-MQjVR4fLnXaBjkgtk-97" value="Success Message" style="rounded=1;whiteSpace=wrap;html=1;" vertex="1" parent="WIyWlLk6GJQsqaUBKTNV-1">
          <mxGeometry x="780" y="1090" width="120" height="60" as="geometry" />
        </mxCell>
      </root>
    </mxGraphModel>
  </diagram>
</mxfile>
